<?xml version="1.0" encoding="utf-8"?>
<!-- Generator: Adobe Illustrator 19.0.0, SVG Export Plug-In . SVG Version: 6.00 Build 0)  -->
<svg version="1.1" id="Layer_1" xmlns="http://www.w3.org/2000/svg" xmlns:xlink="http://www.w3.org/1999/xlink" x="0px" y="0px"
	 viewBox="50 51 700 500" style="enable-background:new 50 51 700 500;" xml:space="preserve">
<style type="text/css">
	.st0{fill:#29292B;}
	.st1{fill:#333232;}
	.st2{fill:#232222;}
	.st3{fill:none;stroke:#F7B30B;stroke-width:2;stroke-miterlimit:10;}
	.st4{fill:#B22929;}
	.st5{font-family:'FranklinGothic-Book';}
	.st6{font-size:32.696px;}
	.st7{fill:#10BDC6;}
</style>
<g id="Layer_1_2_">
	<g id="Layer_1_1_">
	</g>
	<g id="Layer_2">
		<path id="XMLID_1_" class="st0" d="M50,50.7c0,0,402,44,398,284s302,216,302,216v-500L50,50.7L50,50.7z"/>
	</g>
	<g id="Layer_3">
	</g>
</g>
<g id="Layer_2_1_">
	<path class="st1" d="M50,51h700v500c0,0-272-28-252-216S218,74,218,74S150,58,50,51z"/>
	<path class="st2" d="M190.5,51H750v500c0,0-217.4-28-201.4-216S324.8,74,324.8,74S270.4,58,190.5,51z"/>
</g>
<g id="Layer_4">
	<line class="st3" x1="645.8" y1="310.9" x2="616.9" y2="396"/>
	<line class="st3" x1="628.6" y1="290.4" x2="543.6" y2="331.5"/>
	<line class="st3" x1="647.8" y1="247.7" x2="603.7" y2="168.6"/>
	<line class="st3" x1="628.6" y1="265.5" x2="537.3" y2="238.6"/>
</g>
<g id="Layer_3_1_">
	
		<image style="overflow:visible;enable-background:new    ;" width="800" height="800" xlink:href="F:\imp\4.png"  transform="matrix(5.625000e-002 0 0 5.625000e-002 508.7096 315.4807)">
	</image>
	
		<image style="overflow:visible;enable-background:new    ;" width="500" height="500" xlink:href="F:\imp\5.png"  transform="matrix(9.000000e-002 0 0 9.000000e-002 587.9891 391.76)">
	</image>
	
		<image style="overflow:visible;enable-background:new    ;" width="300" height="300" xlink:href="1.png"  transform="matrix(0.2667 0 0 0.2667 620.4179 240.3513)">
	</image>
	
		<image style="overflow:visible;enable-background:new    ;" width="266" height="266" xlink:href="F:\imp\2.png"  transform="matrix(0.2538 0 0 0.2532 491.0429 199.1578)">
	</image>
	
		<image style="overflow:visible;enable-background:new    ;" width="500" height="500" xlink:href="F:\imp\3.png"  transform="matrix(9.000000e-002 0 0 9.000000e-002 570.7929 131.3159)">
	</image>
</g>
<path class="st4" d="M230,427"/>
<text transform="matrix(0.9216 0 0 1 100.9995 248.3232)"><tspan x="0" y="0" class="st5 st6">A step towards </tspan><tspan x="0" y="39.2" class="st5 st6">the </tspan><tspan x="52.9" y="39.2" class="st7 st5 st6">future</tspan><tspan x="136" y="39.2" class="st5 st6">...</tspan></text>
</svg>
