<?xml version="1.0" encoding="utf-8"?>
<!-- Generator: Adobe Illustrator 19.0.0, SVG Export Plug-In . SVG Version: 6.00 Build 0)  -->
<svg version="1.1" xmlns="http://www.w3.org/2000/svg" xmlns:xlink="http://www.w3.org/1999/xlink" x="0px" y="0px"
	 viewBox="0 0 700 500" style="enable-background:new 0 0 700 500;" xml:space="preserve">
<style type="text/css">
	.st0{fill:#FFFFFF;}
	.st1{fill:#29292B;}
	.st2{fill:#333232;}
	.st3{fill:#242322;}
	.st4{font-family:'JavaneseText';}
	.st5{font-size:45px;}
	.st6{fill:#10BDC6;}
	.st7{fill:none;stroke:#F8D812;stroke-width:2;stroke-miterlimit:10;}
</style>
<g id="Layer_1">
</g>
<g id="Layer_2">
	<rect id="XMLID_1_" class="st0" width="700" height="500"/>
</g>
<g id="Layer_4">
	<g id="Layer_1_2_">
		<g id="Layer_1_1_">
		</g>
		<g id="Layer_2_2_">
			<path id="XMLID_2_" class="st1" d="M0-0.3c0,0,402,44,398,284s302,216,302,216v-500L0-0.3L0-0.3z"/>
		</g>
		<g id="Layer_3_1_">
		</g>
	</g>
</g>
<g id="Layer_3">
	<g id="Layer_2_1_">
		<path id="XMLID_4_" class="st2" d="M0,0h700v500c0,0-272-28-252-216S168,23,168,23S100,7,0,0z"/>
		<path id="XMLID_3_" class="st3" d="M140.5,0H700v500c0,0-217.4-28-201.4-216S274.8,23,274.8,23S220.4,7,140.5,0z"/>
	</g>
</g>
<g id="Layer_7">
	<text id="XMLID_55_" transform="matrix(0.9067 0 0 1 25.0255 171.038)"><tspan x="0" y="0" class="st4 st5">A step towards </tspan><tspan x="0" y="54" class="st4 st5">the </tspan><tspan x="74.2" y="54" class="st6 st4 st5">future</tspan></text>
</g>
<g id="Layer_9">
	<line id="XMLID_71_" class="st7" x1="549.7" y1="110.3" x2="613" y2="185"/>
	<line id="XMLID_72_" class="st7" x1="503.6" y1="174" x2="595.8" y2="207.1"/>
	<line id="XMLID_73_" class="st7" x1="507.7" y1="264.5" x2="599.6" y2="230.5"/>
	<line id="XMLID_74_" class="st7" x1="551.8" y1="325.3" x2="614.4" y2="250"/>
</g>
<g id="Layer_8">
	
		<image style="overflow:visible;" width="300" height="300" id="XMLID_56_" xlink:href="1.png"  transform="matrix(0.3 0 0 0.3 589.287 171.0379)">
	</image>
	
		<image style="overflow:visible;" width="266" height="266" id="XMLID_59_" xlink:href="F:\imp\2.png"  transform="matrix(0.2256 0 0 0.2256 457.5 141.0379)">
	</image>
	
		<image style="overflow:visible;" width="500" height="500" id="XMLID_62_" xlink:href="F:\imp\3.png"  transform="matrix(9.000000e-002 0 0 9.000000e-002 512.5 72.5)">
	</image>
	
		<image style="overflow:visible;" width="800" height="800" id="XMLID_65_" xlink:href="F:\imp\4.png"  transform="matrix(5.625000e-002 0 0 5.625000e-002 467.5 247.5)">
	</image>
	
		<image style="overflow:visible;" width="500" height="500" id="XMLID_68_" xlink:href="F:\imp\5.png"  transform="matrix(9.000000e-002 0 0 9.000000e-002 512.5 315.3435)">
	</image>
</g>
</svg>
