<?xml version="1.0" encoding="utf-8"?>
<!-- Generator: Adobe Illustrator 19.0.0, SVG Export Plug-In . SVG Version: 6.00 Build 0)  -->
<svg version="1.1" xmlns="http://www.w3.org/2000/svg" xmlns:xlink="http://www.w3.org/1999/xlink" x="0px" y="0px"
	 viewBox="0 -4 1000 800" style="enable-background:new 0 -4 1000 800;" xml:space="preserve">
<style type="text/css">
	.st0{fill:url(#XMLID_41_);}
	.st1{fill:url(#XMLID_42_);}
	.st2{fill:#C5D92D;}
	.st3{fill:#F9F9FA;}
	.st4{opacity:0.7;}
	.st5{opacity:0.63;fill:none;stroke:#D4CDCD;stroke-width:0.25;stroke-miterlimit:10;enable-background:new    ;}
	.st6{opacity:0.65;fill:none;stroke:#BFBBBB;stroke-width:0.25;stroke-miterlimit:10;enable-background:new    ;}
	.st7{fill:none;stroke:#E2E0E0;stroke-width:0.5;stroke-miterlimit:10;}
	.st8{opacity:0.63;fill:none;stroke:#BFBBBB;stroke-width:0.25;stroke-miterlimit:10;enable-background:new    ;}
	.st9{fill:url(#XMLID_43_);}
	.st10{fill:url(#XMLID_44_);}
	.st11{fill:url(#XMLID_46_);}
	.st12{fill:#FFFFFF;}
	.st13{fill:#FFFFFF;stroke:#FFFFFF;stroke-miterlimit:10;}
	.st14{fill:url(#XMLID_47_);}
	.st15{fill:url(#XMLID_50_);}
	.st16{fill:#DCDBDB;stroke:#DCDBDB;stroke-miterlimit:10;}
	.st17{fill:#DCDBDB;}
	.st18{fill:url(#XMLID_51_);}
	.st19{fill:url(#XMLID_52_);}
	.st20{fill:url(#XMLID_53_);}
	.st21{fill:url(#XMLID_55_);}
	.st22{fill:url(#XMLID_58_);}
	.st23{fill:url(#XMLID_59_);}
	.st24{fill:url(#XMLID_60_);}
	.st25{font-family:'ArialRoundedMTBold';}
	.st26{font-size:48px;}
	.st27{fill:url(#XMLID_61_);}
	.st28{fill:url(#XMLID_63_);}
	.st29{fill:url(#XMLID_64_);}
	.st30{fill:url(#XMLID_67_);}
	.st31{fill:url(#XMLID_69_);}
	.st32{fill:url(#XMLID_70_);}
	.st33{fill:url(#XMLID_71_);}
	.st34{fill:url(#XMLID_72_);}
	.st35{fill:url(#XMLID_73_);}
	.st36{fill:none;stroke:#EF6C91;stroke-width:4;stroke-miterlimit:10;}
</style>
<g id="Layer_1">
	<g id="Layer_1_1_">
		<g id="XMLID_2_">
			
				<linearGradient id="XMLID_41_" gradientUnits="userSpaceOnUse" x1="0" y1="396" x2="1000" y2="396" gradientTransform="matrix(1 0 0 -1 0 792)">
				<stop  offset="0" style="stop-color:#FFFFFF"/>
				<stop  offset="0" style="stop-color:#1C4792"/>
				<stop  offset="1" style="stop-color:#872738"/>
			</linearGradient>
			<rect id="XMLID_86_" y="-4" class="st0" width="1000" height="800"/>
			
				<linearGradient id="XMLID_42_" gradientUnits="userSpaceOnUse" x1="0" y1="396" x2="1000" y2="396" gradientTransform="matrix(1 0 0 -1 0 792)">
				<stop  offset="0" style="stop-color:#FFFFFF"/>
				<stop  offset="0" style="stop-color:#153677"/>
				<stop  offset="1" style="stop-color:#00B3D3"/>
			</linearGradient>
			<rect id="XMLID_62_" y="-4" class="st1" width="1000" height="800"/>
		</g>
	</g>
	<g id="Layer_2">
		<g id="XMLID_1_">
			<path id="XMLID_66_" class="st2" d="M0,248.5l209.4-67.9l-9,132.1L421,180.5c0,0-177.8,593.7,579,615.5V-4H0V248.5z"/>
			<path id="XMLID_48_" class="st3" d="M0,248.5l209.4-67.9l-9,132.1L421,180.5c0,0-177.8,593.7,579,615.5V-4H0V248.5z"/>
		</g>
	</g>
	<g id="Layer_5" class="st4">
		<polygon id="XMLID_25_" class="st5" points="110.6,49.6 48.5,88.6 242.4,117.1 392.3,49.6 593.8,133.6 716.5,91.6 856,179.7 
			964.9,114.6 842.8,3.1 827.5,277 779.9,348.5 949.7,294.1 883.6,616.6 928.5,718.6 874,750.1 789.2,693.1 668,661.6 748.3,480.1 
			506.7,495.7 546.8,277 437.8,241.9 545.3,168.1 655.5,333.1 421.1,127.6 301.4,196.6 233.3,272 227.2,160.6 139.4,179.7 0,225.1 
			215.1,12.1 345.4,117.1 519.6,22.6 655.5,157.6 918.9,247.6 716.5,31.6 964.9,30.1 955.8,217.6 983.1,360.1 957.3,553.6 
			983.1,750.1 813.3,588.1 584,580.6 748.3,367.6 445.3,312.8 451.4,114.1 96.9,145.6 		"/>
		<polyline id="XMLID_30_" class="st6" points="232.2,167.5 308.1,209.1 219.9,-3.9 24.1,8.7 0,241.9 		"/>
		<polygon id="XMLID_38_" class="st7" points="719.1,31.6 549.6,168.1 524.1,22.6 		"/>
		<polyline id="XMLID_28_" class="st7" points="450.6,312.8 423.8,418.8 511.3,495.7 511.3,586.9 587.9,580.6 605.9,670.3 
			671.1,661.6 781.9,750.1 791.1,693.1 929.1,718.6 1000,796 		"/>
		<polyline id="XMLID_57_" class="st8" points="750.6,480.1 898.2,538 750.6,367.6 781.9,348.5 		"/>
	</g>
	<g id="Layer_3">
		
			<linearGradient id="XMLID_43_" gradientUnits="userSpaceOnUse" x1="359.0275" y1="304.0916" x2="1000.1" y2="304.0916" gradientTransform="matrix(1 0 0 -1 0 792)">
			<stop  offset="0" style="stop-color:#FFFFFF"/>
			<stop  offset="0" style="stop-color:#1C4792"/>
			<stop  offset="1" style="stop-color:#872738"/>
		</linearGradient>
		<path id="XMLID_3_" class="st9" d="M375.5,207.9l47.5-28.2c0,0-157.5,537,577.1,616.3C1000,796,238.6,819.3,375.5,207.9z"/>
	</g>
	<g id="Layer_4">
		<g id="XMLID_4_">
			
				<image style="overflow:visible;opacity:0.3;enable-background:new    ;" width="600" height="600" id="XMLID_94_" xlink:href="D:\project\imp\196D1240.png"  transform="matrix(0.2386 0 0 0.2386 830.4532 286.5745)">
			</image>
			<g id="XMLID_68_">
				
					<linearGradient id="XMLID_44_" gradientUnits="userSpaceOnUse" x1="880.7328" y1="391.9398" x2="937.2672" y2="489.8602" gradientTransform="matrix(1 0 0 -1 0 792)">
					<stop  offset="0" style="stop-color:#91469B"/>
					<stop  offset="0.1109" style="stop-color:#824C96"/>
					<stop  offset="0.5181" style="stop-color:#50598D"/>
					<stop  offset="0.8272" style="stop-color:#235C86"/>
					<stop  offset="1" style="stop-color:#005C83"/>
				</linearGradient>
				<ellipse id="XMLID_92_" class="st10" cx="909" cy="351.1" rx="56.6" ry="56.5"/>
			</g>
		</g>
		<g id="XMLID_5_">
			
				<image style="overflow:visible;opacity:0.3;enable-background:new    ;" width="521" height="521" id="XMLID_129_" xlink:href="D:\project\imp\196D1241.png"  transform="matrix(0.2386 0 0 0.2386 676.2999 154.3088)">
			</image>
			<g id="XMLID_89_">
				
					<linearGradient id="XMLID_46_" gradientUnits="userSpaceOnUse" x1="721.8461" y1="541.8034" x2="768.9539" y2="623.3966" gradientTransform="matrix(1 0 0 -1 0 792)">
					<stop  offset="0" style="stop-color:#D069A9"/>
					<stop  offset="0.1863" style="stop-color:#DA7090"/>
					<stop  offset="0.3899" style="stop-color:#E37679"/>
					<stop  offset="0.5802" style="stop-color:#EA7B65"/>
					<stop  offset="0.7512" style="stop-color:#EF7E54"/>
					<stop  offset="0.8969" style="stop-color:#F38048"/>
					<stop  offset="1" style="stop-color:#F58143"/>
				</linearGradient>
				<circle id="XMLID_128_" class="st11" cx="745.4" cy="209.4" r="47.1"/>
			</g>
		</g>
		<g id="XMLID_10_">
			<g id="XMLID_49_">
				<path id="XMLID_54_" class="st12" d="M893.6,350.9c-0.6,0.8,1.5-1.6,1.9-2c1.7-1.6,3.7-3.1,5.9-4.1c8.7-4,16.9,0.5,23.2,6.6
					c2.3,2.2,5.9-1.3,3.5-3.5c-7.3-7-16.8-12-27-8.3c-4.7,1.7-8.9,4.9-11.9,8.8C887.4,350.9,891.7,353.4,893.6,350.9L893.6,350.9z"
					/>
			</g>
		</g>
		<g id="XMLID_9_">
			<g id="XMLID_40_">
				<path id="XMLID_45_" class="st12" d="M883.7,345c3.7-4.5,8.7-8.2,14-10.5c13.8-6.2,26.7,0.2,36.5,10.5c2.2,2.3,5.7-1.2,3.5-3.5
					c-10.3-10.9-24.2-18-39.2-12.7c-6.9,2.5-13.7,7-18.4,12.7C878.2,343.9,881.7,347.5,883.7,345L883.7,345z"/>
			</g>
		</g>
		<g id="XMLID_15_">
			<g id="XMLID_31_">
				<path id="XMLID_36_" class="st12" d="M899.2,360.4c1.4-1.7,3.2-3.2,5.1-4.3c5.8-3.1,10.8-0.3,14.8,4.3c2.1,2.4,5.7-1.1,3.5-3.5
					c-4.6-5.2-10.8-8.7-17.8-6.4c-3.5,1.1-6.9,3.5-9.2,6.4C893.7,359.3,897.2,362.9,899.2,360.4L899.2,360.4z"/>
			</g>
		</g>
		<circle id="XMLID_8_" class="st13" cx="909.9" cy="368.1" r="4.8"/>
		
			<image style="overflow:visible;enable-background:new    ;" width="250" height="250" id="XMLID_11_" xlink:href="D:\project\imp\196D1247.png"  transform="matrix(0.1971 0 0 0.211 720.7959 183.0827)">
		</image>
		<g id="XMLID_12_">
			
				<image style="overflow:visible;opacity:0.3;enable-background:new    ;" width="521" height="525" id="XMLID_123_" xlink:href="D:\project\imp\196D1242.png"  transform="matrix(0.2377 0 0 0.2377 676.5381 432.5179)">
			</image>
			<g id="XMLID_65_">
				
					<linearGradient id="XMLID_47_" gradientUnits="userSpaceOnUse" x1="721.8461" y1="263.3034" x2="768.9539" y2="344.8966" gradientTransform="matrix(1 0 0 -1 0 792)">
					<stop  offset="0" style="stop-color:#D069A9"/>
					<stop  offset="0.1863" style="stop-color:#DA7090"/>
					<stop  offset="0.3899" style="stop-color:#E37679"/>
					<stop  offset="0.5802" style="stop-color:#EA7B65"/>
					<stop  offset="0.7512" style="stop-color:#EF7E54"/>
					<stop  offset="0.8969" style="stop-color:#F38048"/>
					<stop  offset="1" style="stop-color:#F58143"/>
				</linearGradient>
				<circle id="XMLID_107_" class="st14" cx="745.4" cy="487.9" r="47.1"/>
			</g>
		</g>
		<g id="XMLID_6_">
			
				<image style="overflow:visible;opacity:0.3;enable-background:new    ;" width="521" height="521" id="XMLID_127_" xlink:href="D:\project\imp\196D1243.png"  transform="matrix(0.2386 0 0 0.2386 593.6293 294.4626)">
			</image>
			<g id="XMLID_88_">
				
					<linearGradient id="XMLID_50_" gradientUnits="userSpaceOnUse" x1="639.246" y1="401.6034" x2="686.3539" y2="483.1966" gradientTransform="matrix(1 0 0 -1 0 792)">
					<stop  offset="0" style="stop-color:#D069A9"/>
					<stop  offset="0.1863" style="stop-color:#DA7090"/>
					<stop  offset="0.3899" style="stop-color:#E37679"/>
					<stop  offset="0.5802" style="stop-color:#EA7B65"/>
					<stop  offset="0.7512" style="stop-color:#EF7E54"/>
					<stop  offset="0.8969" style="stop-color:#F38048"/>
					<stop  offset="1" style="stop-color:#F58143"/>
				</linearGradient>
				<circle id="XMLID_124_" class="st15" cx="662.8" cy="349.6" r="47.1"/>
			</g>
		</g>
		<path id="XMLID_18_" class="st16" d="M665.5,335c0,0-11.4-18.7-24.7,0c0,0-4.1,4.6,2.7,15.2l22,27.4V335z"/>
		<path id="XMLID_19_" class="st17" d="M665.5,335c0,0,11-18.7,23.8,0c0,0,4,4.6-2.6,15.2l-21.1,27.4V335H665.5z"/>
		
			<image style="overflow:visible;enable-background:new    ;" width="1216" height="861" id="XMLID_7_" xlink:href="D:\project\imp\196D124E.png"  transform="matrix(5.175585e-002 0 0 5.414583e-002 713.9713 464.5845)">
		</image>
	</g>
	<g id="Layer_6">
		<g id="XMLID_56_">
			
				<image style="overflow:visible;opacity:0.3;enable-background:new    ;" width="283" height="279" id="XMLID_119_" xlink:href="D:\project\imp\196D124F.png"  transform="matrix(0.2374 0 0 0.2374 71.0725 69.3357)">
			</image>
			<g id="XMLID_101_">
				
					<linearGradient id="XMLID_51_" gradientUnits="userSpaceOnUse" x1="102.5108" y1="680.8571" x2="120.7227" y2="712.4011" gradientTransform="matrix(1 0 0 -1 0 792)">
					<stop  offset="0" style="stop-color:#1F59A8"/>
					<stop  offset="5.677289e-002" style="stop-color:#405BA0"/>
					<stop  offset="0.2545" style="stop-color:#7E658A"/>
					<stop  offset="0.4428" style="stop-color:#A76E76"/>
					<stop  offset="0.6166" style="stop-color:#C87664"/>
					<stop  offset="0.7728" style="stop-color:#DF7B54"/>
					<stop  offset="0.9059" style="stop-color:#EE7F48"/>
					<stop  offset="1" style="stop-color:#F58143"/>
				</linearGradient>
				<ellipse id="XMLID_118_" class="st18" cx="111.6" cy="95.4" rx="18.4" ry="18.1"/>
			</g>
		</g>
		<g id="XMLID_74_">
			
				<image style="overflow:visible;opacity:0.3;enable-background:new    ;" width="283" height="283" id="XMLID_111_" xlink:href="D:\project\imp\196D1244.png"  transform="matrix(0.2358 0 0 0.2358 888.7696 171.5465)">
			</image>
			<g id="XMLID_102_">
				
					<linearGradient id="XMLID_52_" gradientUnits="userSpaceOnUse" x1="919.9847" y1="578.4117" x2="938.1965" y2="609.9557" gradientTransform="matrix(1 0 0 -1 0 792)">
					<stop  offset="0" style="stop-color:#D069A9"/>
					<stop  offset="0.1863" style="stop-color:#DA7090"/>
					<stop  offset="0.3899" style="stop-color:#E37679"/>
					<stop  offset="0.5802" style="stop-color:#EA7B65"/>
					<stop  offset="0.7512" style="stop-color:#EF7E54"/>
					<stop  offset="0.8969" style="stop-color:#F38048"/>
					<stop  offset="1" style="stop-color:#F58143"/>
				</linearGradient>
				<ellipse id="XMLID_110_" class="st19" cx="929.1" cy="197.8" rx="18.4" ry="18.1"/>
			</g>
		</g>
		<g id="XMLID_75_">
			
				<image style="overflow:visible;opacity:0.3;enable-background:new    ;" width="283" height="279" id="XMLID_117_" xlink:href="D:\project\imp\196D1245.png"  transform="matrix(0.2374 0 0 0.2374 888.533 692.5544)">
			</image>
			<g id="XMLID_104_">
				
					<linearGradient id="XMLID_53_" gradientUnits="userSpaceOnUse" x1="920.0108" y1="57.6571" x2="938.2227" y2="89.2011" gradientTransform="matrix(1 0 0 -1 0 792)">
					<stop  offset="0" style="stop-color:#BFAB30"/>
					<stop  offset="8.893126e-002" style="stop-color:#B0A94A"/>
					<stop  offset="0.2799" style="stop-color:#92A47A"/>
					<stop  offset="0.4618" style="stop-color:#75A19B"/>
					<stop  offset="0.6297" style="stop-color:#599FB4"/>
					<stop  offset="0.7806" style="stop-color:#3C9DC5"/>
					<stop  offset="0.9091" style="stop-color:#1D9CD0"/>
					<stop  offset="1" style="stop-color:#009CD4"/>
				</linearGradient>
				<ellipse id="XMLID_116_" class="st20" cx="929.1" cy="718.6" rx="18.4" ry="18.1"/>
			</g>
		</g>
		<g id="XMLID_76_">
			
				<image style="overflow:visible;opacity:0.3;enable-background:new    ;" width="283" height="283" id="XMLID_121_" xlink:href="D:\project\imp\ACC3A39F.png"  transform="matrix(0.2358 0 0 0.2358 575.3285 566.7419)">
			</image>
			<g id="XMLID_108_">
				
					<linearGradient id="XMLID_55_" gradientUnits="userSpaceOnUse" x1="606.5108" y1="183.2571" x2="624.7227" y2="214.801" gradientTransform="matrix(1 0 0 -1 0 792)">
					<stop  offset="0" style="stop-color:#E74425"/>
					<stop  offset="0.1007" style="stop-color:#D8493A"/>
					<stop  offset="0.2891" style="stop-color:#BD505D"/>
					<stop  offset="0.4687" style="stop-color:#A65576"/>
					<stop  offset="0.6345" style="stop-color:#93578A"/>
					<stop  offset="0.7834" style="stop-color:#845898"/>
					<stop  offset="0.9103" style="stop-color:#7B59A1"/>
					<stop  offset="1" style="stop-color:#775AA6"/>
				</linearGradient>
				<ellipse id="XMLID_120_" class="st21" cx="615.6" cy="593" rx="18.4" ry="18.1"/>
			</g>
		</g>
		<g id="XMLID_13_">
			
				<image style="overflow:visible;opacity:0.3;enable-background:new    ;" width="283" height="279" id="XMLID_126_" xlink:href="D:\project\imp\ACC3A39D.png"  transform="matrix(0.2374 0 0 0.2374 483.5519 294.5807)">
			</image>
			<g id="XMLID_109_">
				
					<linearGradient id="XMLID_58_" gradientUnits="userSpaceOnUse" x1="514.9911" y1="455.623" x2="533.2031" y2="487.167" gradientTransform="matrix(1 0 0 -1 0 792)">
					<stop  offset="0" style="stop-color:#BFAB30"/>
					<stop  offset="8.893126e-002" style="stop-color:#B0A94A"/>
					<stop  offset="0.2799" style="stop-color:#92A47A"/>
					<stop  offset="0.4618" style="stop-color:#75A19B"/>
					<stop  offset="0.6297" style="stop-color:#599FB4"/>
					<stop  offset="0.7806" style="stop-color:#3C9DC5"/>
					<stop  offset="0.9091" style="stop-color:#1D9CD0"/>
					<stop  offset="1" style="stop-color:#009CD4"/>
				</linearGradient>
				<ellipse id="XMLID_125_" class="st22" cx="524.1" cy="320.6" rx="18.4" ry="18.1"/>
			</g>
		</g>
		<g id="XMLID_14_">
			
				<image style="overflow:visible;opacity:0.3;enable-background:new    ;" width="283" height="279" id="XMLID_131_" xlink:href="D:\project\imp\ACC3A39B.png"  transform="matrix(0.2374 0 0 0.2374 428.4761 105.6115)">
			</image>
			<g id="XMLID_122_">
				
					<linearGradient id="XMLID_59_" gradientUnits="userSpaceOnUse" x1="459.8839" y1="644.6104" x2="478.0958" y2="676.1544" gradientTransform="matrix(1 0 0 -1 0 792)">
					<stop  offset="0" style="stop-color:#D069A9"/>
					<stop  offset="0.1863" style="stop-color:#DA7090"/>
					<stop  offset="0.3899" style="stop-color:#E37679"/>
					<stop  offset="0.5802" style="stop-color:#EA7B65"/>
					<stop  offset="0.7512" style="stop-color:#EF7E54"/>
					<stop  offset="0.8969" style="stop-color:#F38048"/>
					<stop  offset="1" style="stop-color:#F58143"/>
				</linearGradient>
				<ellipse id="XMLID_130_" class="st23" cx="469" cy="131.6" rx="18.4" ry="18.1"/>
			</g>
		</g>
		<g id="XMLID_33_">
			
				<image style="overflow:visible;opacity:0.3;enable-background:new    ;" width="283" height="279" id="XMLID_138_" xlink:href="D:\project\imp\ACC3A395.png"  transform="matrix(0.2374 0 0 0.2374 710.0405 22.2268)">
			</image>
			<g id="XMLID_93_">
				
					<linearGradient id="XMLID_60_" gradientUnits="userSpaceOnUse" x1="741.4683" y1="727.9835" x2="759.6802" y2="759.5274" gradientTransform="matrix(1 0 0 -1 0 792)">
					<stop  offset="0" style="stop-color:#BFAB30"/>
					<stop  offset="8.893126e-002" style="stop-color:#B0A94A"/>
					<stop  offset="0.2799" style="stop-color:#92A47A"/>
					<stop  offset="0.4618" style="stop-color:#75A19B"/>
					<stop  offset="0.6297" style="stop-color:#599FB4"/>
					<stop  offset="0.7806" style="stop-color:#3C9DC5"/>
					<stop  offset="0.9091" style="stop-color:#1D9CD0"/>
					<stop  offset="1" style="stop-color:#009CD4"/>
				</linearGradient>
				<ellipse id="XMLID_137_" class="st24" cx="750.6" cy="48.2" rx="18.4" ry="18.1"/>
			</g>
		</g>
	</g>
	<g id="Layer_7">
		<text transform="matrix(0.8992 0 0 1 16.0015 408.0068)" class="st3 st25 st26">A step towards</text>
		<text transform="matrix(0.8992 0 0 1 16.0015 465.6064)" class="st3 st25 st26">the </text>
	</g>
	<g id="Layer_8">
		<g id="XMLID_87_">
			<text id="XMLID_188_" transform="matrix(1 0 0 1 93.1893 465.519)" class="st25 st26">future...</text>
			<g id="XMLID_168_">
				
					<linearGradient id="XMLID_61_" gradientUnits="userSpaceOnUse" x1="92.7676" y1="343.7" x2="274.7832" y2="343.7" gradientTransform="matrix(1 0 0 -1 0 792)">
					<stop  offset="0" style="stop-color:#D069A9"/>
					<stop  offset="0.1863" style="stop-color:#DA7090"/>
					<stop  offset="0.3899" style="stop-color:#E37679"/>
					<stop  offset="0.5802" style="stop-color:#EA7B65"/>
					<stop  offset="0.7512" style="stop-color:#EF7E54"/>
					<stop  offset="0.8969" style="stop-color:#F38048"/>
					<stop  offset="1" style="stop-color:#F58143"/>
				</linearGradient>
				<path id="XMLID_186_" class="st27" d="M96,440.7h1.5v-1.9c0-2,0.3-3.6,0.8-4.8s1.4-2,2.6-2.6s2.9-0.8,5-0.8
					c3.7,0,5.6,0.9,5.6,2.7c0,0.6-0.2,1.1-0.6,1.5s-0.9,0.6-1.4,0.6c-0.3,0-0.7,0-1.3-0.1s-1.1-0.1-1.5-0.1c-1.2,0-1.9,0.3-2.2,1
					s-0.5,1.7-0.5,2.9v1.5h1.6c2.4,0,3.7,0.7,3.7,2.2c0,1-0.3,1.7-1,2s-1.5,0.4-2.7,0.4H104v16.9c0,1.3-0.3,2.2-0.9,2.9
					s-1.4,1-2.3,1s-1.7-0.3-2.3-1s-0.9-1.6-0.9-2.9v-16.9h-1.8c-1,0-1.7-0.2-2.2-0.6s-0.8-1-0.8-1.7C92.8,441.4,93.8,440.7,96,440.7
					z"/>
				
					<linearGradient id="XMLID_63_" gradientUnits="userSpaceOnUse" x1="92.7676" y1="338.95" x2="274.7832" y2="338.95" gradientTransform="matrix(1 0 0 -1 0 792)">
					<stop  offset="0" style="stop-color:#D069A9"/>
					<stop  offset="0.1863" style="stop-color:#DA7090"/>
					<stop  offset="0.3899" style="stop-color:#E37679"/>
					<stop  offset="0.5802" style="stop-color:#EA7B65"/>
					<stop  offset="0.7512" style="stop-color:#EF7E54"/>
					<stop  offset="0.8969" style="stop-color:#F38048"/>
					<stop  offset="1" style="stop-color:#F58143"/>
				</linearGradient>
				<path id="XMLID_184_" class="st28" d="M129.1,462.5v-0.8c-0.8,1-1.6,1.8-2.4,2.4s-1.8,1.1-2.8,1.5s-2.1,0.5-3.4,0.5
					c-1.5,0-2.9-0.3-4.2-1s-2.2-1.5-2.8-2.6c-0.8-1.4-1.2-3.3-1.2-5.9v-12.7c0-1.3,0.3-2.2,0.9-2.9s1.3-0.9,2.3-0.9s1.8,0.3,2.3,1
					s0.9,1.6,0.9,2.9v10.2c0,1.5,0.1,2.7,0.4,3.7s0.7,1.8,1.3,2.4s1.5,0.9,2.6,0.9s2.1-0.3,3-1s1.6-1.5,2.1-2.5
					c0.4-0.9,0.5-2.9,0.5-6v-7.8c0-1.3,0.3-2.2,0.9-2.9s1.4-1,2.3-1s1.7,0.3,2.3,0.9s0.9,1.6,0.9,2.9v18.5c0,1.2-0.3,2.1-0.8,2.7
					s-1.3,0.9-2.1,0.9s-1.6-0.3-2.2-0.9S129.1,463.6,129.1,462.5z"/>
				
					<linearGradient id="XMLID_64_" gradientUnits="userSpaceOnUse" x1="92.7676" y1="343.25" x2="274.7832" y2="343.25" gradientTransform="matrix(1 0 0 -1 0 792)">
					<stop  offset="0" style="stop-color:#D069A9"/>
					<stop  offset="0.1863" style="stop-color:#DA7090"/>
					<stop  offset="0.3899" style="stop-color:#E37679"/>
					<stop  offset="0.5802" style="stop-color:#EA7B65"/>
					<stop  offset="0.7512" style="stop-color:#EF7E54"/>
					<stop  offset="0.8969" style="stop-color:#F38048"/>
					<stop  offset="1" style="stop-color:#F58143"/>
				</linearGradient>
				<path id="XMLID_182_" class="st29" d="M141.8,440.7h0.7v-3.8c0-1,0-1.8,0.1-2.4s0.2-1.1,0.5-1.5s0.6-0.8,1.1-1.1s1-0.4,1.6-0.4
					c0.8,0,1.5,0.3,2.2,0.9c0.4,0.4,0.7,0.9,0.8,1.5s0.2,1.4,0.2,2.5v4.4h2.3c0.9,0,1.6,0.2,2.1,0.6s0.7,1,0.7,1.7
					c0,0.9-0.3,1.5-1,1.8s-1.7,0.5-2.9,0.5H149V457c0,1,0,1.8,0.1,2.3s0.3,1,0.6,1.3s0.8,0.5,1.5,0.5c0.4,0,0.9-0.1,1.5-0.2
					s1.1-0.2,1.5-0.2c0.5,0,1,0.2,1.4,0.6s0.6,0.9,0.6,1.5c0,1-0.6,1.8-1.7,2.4s-2.7,0.8-4.9,0.8c-2,0-3.5-0.3-4.5-1s-1.7-1.6-2-2.8
					s-0.5-2.8-0.5-4.8v-12.3h-0.8c-0.9,0-1.6-0.2-2.1-0.7s-0.7-1-0.7-1.7s0.3-1.2,0.8-1.7S140.9,440.7,141.8,440.7z"/>
				
					<linearGradient id="XMLID_67_" gradientUnits="userSpaceOnUse" x1="92.7676" y1="338.95" x2="274.7832" y2="338.95" gradientTransform="matrix(1 0 0 -1 0 792)">
					<stop  offset="0" style="stop-color:#D069A9"/>
					<stop  offset="0.1863" style="stop-color:#DA7090"/>
					<stop  offset="0.3899" style="stop-color:#E37679"/>
					<stop  offset="0.5802" style="stop-color:#EA7B65"/>
					<stop  offset="0.7512" style="stop-color:#EF7E54"/>
					<stop  offset="0.8969" style="stop-color:#F38048"/>
					<stop  offset="1" style="stop-color:#F58143"/>
				</linearGradient>
				<path id="XMLID_180_" class="st30" d="M175.1,462.5v-0.8c-0.8,1-1.6,1.8-2.4,2.4s-1.8,1.1-2.8,1.5s-2.1,0.5-3.4,0.5
					c-1.5,0-2.9-0.3-4.2-1s-2.2-1.5-2.8-2.6c-0.8-1.4-1.2-3.3-1.2-5.9v-12.7c0-1.3,0.3-2.2,0.9-2.9s1.3-0.9,2.3-0.9s1.8,0.3,2.3,1
					s0.9,1.6,0.9,2.9v10.2c0,1.5,0.1,2.7,0.4,3.7s0.7,1.8,1.3,2.4s1.5,0.9,2.6,0.9s2.1-0.3,3-1s1.6-1.5,2.1-2.5
					c0.4-0.9,0.5-2.9,0.5-6v-7.8c0-1.3,0.3-2.2,0.9-2.9s1.4-1,2.3-1s1.7,0.3,2.3,0.9s0.9,1.6,0.9,2.9v18.5c0,1.2-0.3,2.1-0.8,2.7
					s-1.3,0.9-2.1,0.9s-1.6-0.3-2.2-0.9S175.1,463.6,175.1,462.5z"/>
				
					<linearGradient id="XMLID_69_" gradientUnits="userSpaceOnUse" x1="92.7676" y1="338.9" x2="274.7832" y2="338.9" gradientTransform="matrix(1 0 0 -1 0 792)">
					<stop  offset="0" style="stop-color:#D069A9"/>
					<stop  offset="0.1863" style="stop-color:#DA7090"/>
					<stop  offset="0.3899" style="stop-color:#E37679"/>
					<stop  offset="0.5802" style="stop-color:#EA7B65"/>
					<stop  offset="0.7512" style="stop-color:#EF7E54"/>
					<stop  offset="0.8969" style="stop-color:#F38048"/>
					<stop  offset="1" style="stop-color:#F58143"/>
				</linearGradient>
				<path id="XMLID_178_" class="st31" d="M193.8,456.9v5.3c0,1.3-0.3,2.3-0.9,2.9s-1.4,1-2.3,1c-0.9,0-1.7-0.3-2.3-1
					s-0.9-1.6-0.9-2.9v-17.8c0-2.9,1-4.3,3.1-4.3c1.1,0,1.8,0.3,2.3,1s0.7,1.7,0.8,3c0.8-1.3,1.6-2.3,2.4-3s1.9-1,3.2-1
					s2.6,0.3,3.9,1s1.9,1.6,1.9,2.7c0,0.8-0.3,1.4-0.8,1.9s-1.1,0.8-1.7,0.8c-0.2,0-0.8-0.1-1.7-0.4s-1.7-0.4-2.4-0.4
					c-0.9,0-1.7,0.2-2.3,0.7s-1.1,1.2-1.4,2.2s-0.6,2.1-0.7,3.5S193.8,454.9,193.8,456.9z"/>
				
					<linearGradient id="XMLID_70_" gradientUnits="userSpaceOnUse" x1="92.7676" y1="339.05" x2="274.7832" y2="339.05" gradientTransform="matrix(1 0 0 -1 0 792)">
					<stop  offset="0" style="stop-color:#D069A9"/>
					<stop  offset="0.1863" style="stop-color:#DA7090"/>
					<stop  offset="0.3899" style="stop-color:#E37679"/>
					<stop  offset="0.5802" style="stop-color:#EA7B65"/>
					<stop  offset="0.7512" style="stop-color:#EF7E54"/>
					<stop  offset="0.8969" style="stop-color:#F38048"/>
					<stop  offset="1" style="stop-color:#F58143"/>
				</linearGradient>
				<path id="XMLID_175_" class="st32" d="M226.3,454.7h-12.5c0,1.5,0.3,2.7,0.9,3.8s1.3,1.9,2.3,2.5s2,0.8,3.1,0.8
					c0.8,0,1.5-0.1,2.1-0.3s1.2-0.5,1.8-0.8s1.1-0.8,1.6-1.2s1.1-1,1.9-1.8c0.3-0.3,0.8-0.4,1.4-0.4c0.7,0,1.2,0.2,1.6,0.5
					s0.6,0.9,0.6,1.5s-0.2,1.3-0.7,2s-1.1,1.5-2.1,2.2s-2.1,1.3-3.4,1.8s-3,0.7-4.8,0.7c-4.1,0-7.3-1.2-9.6-3.5s-3.4-5.5-3.4-9.5
					c0-1.9,0.3-3.6,0.8-5.3s1.4-3,2.5-4.2s2.4-2,4-2.7s3.3-0.9,5.3-0.9c2.5,0,4.6,0.5,6.4,1.6s3.1,2.4,4,4.1s1.3,3.4,1.3,5.1
					c0,1.6-0.5,2.7-1.4,3.1S228,454.7,226.3,454.7z M213.8,451h11.6c-0.2-2.2-0.7-3.8-1.8-4.9s-2.4-1.6-4-1.6s-2.9,0.6-3.9,1.7
					S214,448.9,213.8,451z"/>
				
					<linearGradient id="XMLID_71_" gradientUnits="userSpaceOnUse" x1="92.7676" y1="329.4" x2="274.7832" y2="329.4" gradientTransform="matrix(1 0 0 -1 0 792)">
					<stop  offset="0" style="stop-color:#D069A9"/>
					<stop  offset="0.1863" style="stop-color:#DA7090"/>
					<stop  offset="0.3899" style="stop-color:#E37679"/>
					<stop  offset="0.5802" style="stop-color:#EA7B65"/>
					<stop  offset="0.7512" style="stop-color:#EF7E54"/>
					<stop  offset="0.8969" style="stop-color:#F38048"/>
					<stop  offset="1" style="stop-color:#F58143"/>
				</linearGradient>
				<path id="XMLID_173_" class="st33" d="M241.2,466.1c-1,0-1.8-0.3-2.5-0.9s-1.1-1.5-1.1-2.6c0-1,0.3-1.8,1-2.5s1.5-1,2.5-1
					s1.8,0.3,2.5,1s1,1.5,1,2.5c0,1.1-0.3,2-1,2.6S242.2,466.1,241.2,466.1z"/>
				
					<linearGradient id="XMLID_72_" gradientUnits="userSpaceOnUse" x1="92.7676" y1="329.4" x2="274.7832" y2="329.4" gradientTransform="matrix(1 0 0 -1 0 792)">
					<stop  offset="0" style="stop-color:#D069A9"/>
					<stop  offset="0.1863" style="stop-color:#DA7090"/>
					<stop  offset="0.3899" style="stop-color:#E37679"/>
					<stop  offset="0.5802" style="stop-color:#EA7B65"/>
					<stop  offset="0.7512" style="stop-color:#EF7E54"/>
					<stop  offset="0.8969" style="stop-color:#F38048"/>
					<stop  offset="1" style="stop-color:#F58143"/>
				</linearGradient>
				<path id="XMLID_171_" class="st34" d="M256.3,466.1c-1,0-1.8-0.3-2.5-0.9s-1.1-1.5-1.1-2.6c0-1,0.3-1.8,1-2.5s1.5-1,2.5-1
					s1.8,0.3,2.5,1s1,1.5,1,2.5c0,1.1-0.3,2-1,2.6S257.2,466.1,256.3,466.1z"/>
				
					<linearGradient id="XMLID_73_" gradientUnits="userSpaceOnUse" x1="92.7676" y1="329.4" x2="274.7832" y2="329.4" gradientTransform="matrix(1 0 0 -1 0 792)">
					<stop  offset="0" style="stop-color:#D069A9"/>
					<stop  offset="0.1863" style="stop-color:#DA7090"/>
					<stop  offset="0.3899" style="stop-color:#E37679"/>
					<stop  offset="0.5802" style="stop-color:#EA7B65"/>
					<stop  offset="0.7512" style="stop-color:#EF7E54"/>
					<stop  offset="0.8969" style="stop-color:#F38048"/>
					<stop  offset="1" style="stop-color:#F58143"/>
				</linearGradient>
				<path id="XMLID_169_" class="st35" d="M271.3,466.1c-1,0-1.8-0.3-2.5-0.9s-1.1-1.5-1.1-2.6c0-1,0.3-1.8,1-2.5s1.5-1,2.5-1
					s1.8,0.3,2.5,1s1,1.5,1,2.5c0,1.1-0.3,2-1,2.6S272.2,466.1,271.3,466.1z"/>
			</g>
		</g>
	</g>
</g>
<g id="Layer_2_1_">
	<line class="st36" x1="871.6" y1="308.7" x2="782.6" y2="238.3"/>
	<line class="st36" x1="852.4" y1="351.1" x2="709.9" y2="349.6"/>
	<line class="st36" x1="871.6" y1="393.5" x2="790.7" y2="475.1"/>
</g>
</svg>
