<?xml version="1.0" encoding="utf-8"?>
<!-- Generator: Adobe Illustrator 19.0.0, SVG Export Plug-In . SVG Version: 6.00 Build 0)  -->
<svg version="1.1" xmlns="http://www.w3.org/2000/svg" xmlns:xlink="http://www.w3.org/1999/xlink" x="0px" y="0px"
	 viewBox="0 0 1000 800" style="enable-background:new 0 0 1000 800;" xml:space="preserve">
<style type="text/css">
	.st0{fill:#FFFFFF;}
	.st1{fill:url(#XMLID_89_);}
	.st2{fill:#C5D92D;}
	.st3{fill:#F9F9FA;}
	.st4{opacity:0.63;fill:none;stroke:#D4CDCD;stroke-width:0.25;stroke-miterlimit:10;}
	.st5{opacity:0.65;fill:none;stroke:#BFBBBB;stroke-width:0.25;stroke-miterlimit:10;}
	.st6{fill:none;stroke:#E2E0E0;stroke-width:0.5;stroke-miterlimit:10;}
	.st7{opacity:0.63;fill:none;stroke:#BFBBBB;stroke-width:0.25;stroke-miterlimit:10;}
	.st8{fill:url(#XMLID_90_);}
	.st9{fill:url(#XMLID_93_);}
	.st10{fill:url(#XMLID_95_);}
	.st11{fill:#FFFFFF;stroke:#FFFFFF;stroke-miterlimit:10;}
	.st12{fill:url(#XMLID_97_);}
	.st13{fill:url(#XMLID_107_);}
	.st14{fill:#DCDBDB;}
	.st15{fill:url(#XMLID_113_);}
	.st16{fill:url(#XMLID_123_);}
	.st17{fill:url(#XMLID_124_);}
	.st18{fill:url(#XMLID_127_);}
	.st19{fill:url(#XMLID_128_);}
	.st20{fill:url(#XMLID_129_);}
	.st21{fill:url(#XMLID_132_);}
	.st22{fill:url(#XMLID_133_);}
	.st23{fill:url(#XMLID_134_);}
	.st24{fill:url(#XMLID_135_);}
	.st25{font-family:'ArialRoundedMTBold';}
	.st26{font-size:60.8847px;}
	.st27{font-size:60.88px;}
	.st28{fill:url(#XMLID_136_);}
	.st29{fill:url(#XMLID_137_);}
	.st30{fill:url(#XMLID_138_);}
	.st31{fill:url(#XMLID_139_);}
	.st32{fill:url(#XMLID_140_);}
	.st33{fill:url(#XMLID_141_);}
	.st34{fill:url(#XMLID_142_);}
	.st35{fill:url(#XMLID_143_);}
	.st36{fill:url(#XMLID_144_);}
</style>
<g id="Layer_1">
	<g id="XMLID_2_">
		<rect id="XMLID_94_" class="st0" width="1000" height="800"/>
		<linearGradient id="XMLID_89_" gradientUnits="userSpaceOnUse" x1="0" y1="400" x2="1000" y2="400">
			<stop  offset="0" style="stop-color:#FFFFFF"/>
			<stop  offset="0" style="stop-color:#153677"/>
			<stop  offset="1" style="stop-color:#00B3D3"/>
		</linearGradient>
		<rect id="XMLID_92_" class="st1" width="1000" height="800"/>
	</g>
</g>
<g id="Layer_2">
	<g id="XMLID_1_">
		<path id="XMLID_29_" class="st2" d="M0,252.5l209.4-67.9l-9,132.1L421,184.5c0,0-177.8,593.7,579,615.5V0H0V252.5z"/>
		<path id="XMLID_27_" class="st3" d="M0,252.5l209.4-67.9l-9,132.1L421,184.5c0,0-177.8,593.7,579,615.5V0H0V252.5z"/>
	</g>
</g>
<g id="Layer_5">
	<polygon id="XMLID_25_" class="st4" points="110.6,53.6 48.5,92.6 242.4,121.1 392.3,53.6 593.8,137.6 716.5,95.6 856,183.7 
		964.9,118.6 842.8,7.1 827.5,281 779.9,352.5 949.7,298.1 883.6,620.6 928.5,722.6 874,754.1 789.2,697.1 668,665.6 748.3,484.1 
		506.7,499.7 546.8,281 437.8,245.9 545.3,172.1 655.5,337.1 421.1,131.6 301.4,200.6 233.3,276 227.2,164.6 139.4,183.7 0,229.1 
		215.1,16.1 345.4,121.1 519.6,26.6 655.5,161.6 918.9,251.6 716.5,35.6 964.9,34.1 955.8,221.6 983.1,364.1 957.3,557.6 
		983.1,754.1 813.3,592.1 584,584.6 748.3,371.6 445.3,316.8 451.4,118.1 96.9,149.6 	"/>
	<polyline id="XMLID_30_" class="st5" points="232.2,171.5 308.1,213.1 219.9,0.1 24.1,12.7 0,245.9 	"/>
	<polygon id="XMLID_38_" class="st6" points="719.1,35.6 549.6,172.1 524.1,26.6 	"/>
	<polyline id="XMLID_28_" class="st6" points="450.6,316.8 423.8,422.8 511.3,499.7 511.3,590.9 587.9,584.6 605.9,674.3 
		671.1,665.6 781.9,754.1 791.1,697.1 929.1,722.6 1000,800 	"/>
	<polyline id="XMLID_57_" class="st7" points="750.6,484.1 898.2,542 750.6,371.6 781.9,352.5 	"/>
</g>
<g id="Layer_3">
	<linearGradient id="XMLID_90_" gradientUnits="userSpaceOnUse" x1="359" y1="491.8942" x2="1000" y2="491.8942">
		<stop  offset="0" style="stop-color:#FFFFFF"/>
		<stop  offset="0" style="stop-color:#1C4792"/>
		<stop  offset="1" style="stop-color:#872738"/>
	</linearGradient>
	<path id="XMLID_3_" class="st8" d="M375.5,211.9l47.5-28.2c0,0-157.5,537,577.1,616.3C1000,800,238.6,823.3,375.5,211.9z"/>
</g>
<g id="Layer_4">
	<g id="XMLID_4_">
		
			<image style="overflow:visible;opacity:0.3;" width="734" height="738" id="XMLID_65_" xlink:href="B1660DBB.png"  transform="matrix(0.24 0 0 0.24 807.0333 329.0936)">
		</image>
		<g id="XMLID_47_">
			<linearGradient id="XMLID_93_" gradientUnits="userSpaceOnUse" x1="865.3732" y1="474.1512" x2="938.7675" y2="347.0287">
				<stop  offset="0" style="stop-color:#91469B"/>
				<stop  offset="0.1109" style="stop-color:#824C96"/>
				<stop  offset="0.5181" style="stop-color:#50598D"/>
				<stop  offset="0.8272" style="stop-color:#235C86"/>
				<stop  offset="1" style="stop-color:#005C83"/>
			</linearGradient>
			<ellipse id="XMLID_64_" class="st9" cx="902.1" cy="410.6" rx="73" ry="73.5"/>
		</g>
	</g>
	<g id="XMLID_5_">
		
			<image style="overflow:visible;opacity:0.3;" width="649" height="645" id="XMLID_63_" xlink:href="B1660DB9.png"  transform="matrix(0.24 0 0 0.24 634.2999 175.6667)">
		</image>
		<g id="XMLID_48_">
			<linearGradient id="XMLID_95_" gradientUnits="userSpaceOnUse" x1="687.8713" y1="300.0019" x2="750.2877" y2="191.8937">
				<stop  offset="0" style="stop-color:#D069A9"/>
				<stop  offset="0.1863" style="stop-color:#DA7090"/>
				<stop  offset="0.3899" style="stop-color:#E37679"/>
				<stop  offset="0.5802" style="stop-color:#EA7B65"/>
				<stop  offset="0.7512" style="stop-color:#EF7E54"/>
				<stop  offset="0.8969" style="stop-color:#F38048"/>
				<stop  offset="1" style="stop-color:#F58143"/>
			</linearGradient>
			<ellipse id="XMLID_62_" class="st10" cx="719.1" cy="245.9" rx="62.8" ry="62.3"/>
		</g>
	</g>
	<g id="XMLID_10_">
		<g id="XMLID_49_">
			<path id="XMLID_54_" class="st0" d="M886.7,410.3c-0.6,0.8,1.5-1.6,1.9-2c1.7-1.6,3.7-3.1,5.9-4.1c8.7-4,16.9,0.5,23.2,6.6
				c2.3,2.2,5.9-1.3,3.5-3.5c-7.3-7-16.8-12-27-8.3c-4.7,1.7-8.9,4.9-11.9,8.8C880.5,410.3,884.8,412.8,886.7,410.3L886.7,410.3z"/>
		</g>
	</g>
	<g id="XMLID_9_">
		<g id="XMLID_40_">
			<path id="XMLID_45_" class="st0" d="M876.8,404.4c3.7-4.5,8.7-8.2,14-10.5c13.8-6.2,26.7,0.2,36.5,10.5c2.2,2.3,5.7-1.2,3.5-3.5
				c-10.3-10.9-24.2-18-39.2-12.7c-6.9,2.5-13.7,7-18.4,12.7C871.3,403.4,874.8,406.9,876.8,404.4L876.8,404.4z"/>
		</g>
	</g>
	<g id="XMLID_15_">
		<g id="XMLID_31_">
			<path id="XMLID_36_" class="st0" d="M892.3,419.8c1.4-1.7,3.2-3.2,5.1-4.3c5.8-3.1,10.8-0.3,14.8,4.3c2.1,2.4,5.7-1.1,3.5-3.5
				c-4.6-5.2-10.8-8.7-17.8-6.4c-3.5,1.1-6.9,3.5-9.2,6.4C886.8,418.8,890.3,422.3,892.3,419.8L892.3,419.8z"/>
		</g>
	</g>
	<circle id="XMLID_8_" class="st11" cx="902.9" cy="427.6" r="4.8"/>
	
		<image style="overflow:visible;" width="245" height="229" id="XMLID_11_" xlink:href="B1660DBF.png"  transform="matrix(0.3102 0 0 0.295 681.0795 208.4478)">
	</image>
	<g id="XMLID_12_">
		
			<image style="overflow:visible;opacity:0.3;" width="649" height="645" id="XMLID_67_" xlink:href="B1660DB8.png"  transform="matrix(0.24 0 0 0.24 634.2999 508.1332)">
		</image>
		<g id="XMLID_51_">
			<linearGradient id="XMLID_97_" gradientUnits="userSpaceOnUse" x1="687.8713" y1="632.4684" x2="750.2877" y2="524.3602">
				<stop  offset="0" style="stop-color:#D069A9"/>
				<stop  offset="0.1863" style="stop-color:#DA7090"/>
				<stop  offset="0.3899" style="stop-color:#E37679"/>
				<stop  offset="0.5802" style="stop-color:#EA7B65"/>
				<stop  offset="0.7512" style="stop-color:#EF7E54"/>
				<stop  offset="0.8969" style="stop-color:#F38048"/>
				<stop  offset="1" style="stop-color:#F58143"/>
			</linearGradient>
			<ellipse id="XMLID_66_" class="st12" cx="719.1" cy="578.4" rx="62.8" ry="62.3"/>
		</g>
	</g>
	<g id="XMLID_6_">
		
			<image style="overflow:visible;opacity:0.3;" width="649" height="645" id="XMLID_61_" xlink:href="B1660DB6.png"  transform="matrix(0.24 0 0 0.24 540.3579 341.7253)">
		</image>
		<g id="XMLID_46_">
			<linearGradient id="XMLID_107_" gradientUnits="userSpaceOnUse" x1="593.9293" y1="466.0605" x2="656.3456" y2="357.9522">
				<stop  offset="0" style="stop-color:#D069A9"/>
				<stop  offset="0.1863" style="stop-color:#DA7090"/>
				<stop  offset="0.3899" style="stop-color:#E37679"/>
				<stop  offset="0.5802" style="stop-color:#EA7B65"/>
				<stop  offset="0.7512" style="stop-color:#EF7E54"/>
				<stop  offset="0.8969" style="stop-color:#F38048"/>
				<stop  offset="1" style="stop-color:#F58143"/>
			</linearGradient>
			<ellipse id="XMLID_60_" class="st13" cx="625.1" cy="412" rx="62.8" ry="62.3"/>
		</g>
	</g>
	<path id="XMLID_18_" class="st14" d="M624,394.8c0,0-15.9-24.7-34.4,0c0,0-5.7,6,3.8,20.1l30.6,36.2V394.8z"/>
	<path id="XMLID_19_" class="st14" d="M624,394.8c0,0,15.3-24.7,33.1,0c0,0,5.5,6-3.7,20.1L624,451.2V394.8z"/>
	
		<image style="overflow:visible;" width="1200" height="800" id="XMLID_7_" xlink:href="B1660DB7.png"  transform="matrix(8.000000e-002 0 0 8.500000e-002 671.0795 542.0219)">
	</image>
	<g id="XMLID_16_">
		<g id="XMLID_68_">
			<linearGradient id="XMLID_113_" gradientUnits="userSpaceOnUse" x1="809.8073" y1="325.711" x2="820.1285" y2="307.8339">
				<stop  offset="0" style="stop-color:#005C83"/>
				<stop  offset="1" style="stop-color:#F2663B"/>
			</linearGradient>
			<path id="XMLID_72_" class="st15" d="M859,350.8c-24.7-20.9-49.3-41.7-74-62.6c-3.5-3-7.1-6-10.6-9c-2.4-2.1-6,1.5-3.5,3.5
				c24.7,20.9,49.3,41.7,74,62.6c3.5,3,7.1,6,10.6,9C857.9,356.4,861.5,352.9,859,350.8L859,350.8z"/>
		</g>
	</g>
	<g id="XMLID_20_">
		<g id="XMLID_77_">
			<linearGradient id="XMLID_123_" gradientUnits="userSpaceOnUse" x1="739.9944" y1="435.6251" x2="775.5692" y2="374.0077">
				<stop  offset="0" style="stop-color:#F2663B"/>
				<stop  offset="0.2489" style="stop-color:#B06659"/>
				<stop  offset="0.515" style="stop-color:#77636D"/>
				<stop  offset="0.738" style="stop-color:#4A607A"/>
				<stop  offset="0.9061" style="stop-color:#215D81"/>
				<stop  offset="1" style="stop-color:#005C83"/>
			</linearGradient>
			<path id="XMLID_81_" class="st16" d="M687.5,407.3c41,0,82.1,0,123.1,0c5.8,0,11.6,0,17.5,0c3.2,0,3.2-5,0-5
				c-41,0-82.1,0-123.1,0c-5.8,0-11.6,0-17.5,0C684.3,402.3,684.3,407.3,687.5,407.3L687.5,407.3z"/>
		</g>
	</g>
	<g id="XMLID_21_">
		<g id="XMLID_82_">
			<linearGradient id="XMLID_124_" gradientUnits="userSpaceOnUse" x1="781.1347" y1="547.0133" x2="835.7436" y2="452.428">
				<stop  offset="0" style="stop-color:#F2663B"/>
				<stop  offset="0.2489" style="stop-color:#B06659"/>
				<stop  offset="0.515" style="stop-color:#77636D"/>
				<stop  offset="0.738" style="stop-color:#4A607A"/>
				<stop  offset="0.9061" style="stop-color:#215D81"/>
				<stop  offset="1" style="stop-color:#005C83"/>
			</linearGradient>
			<path id="XMLID_86_" class="st17" d="M842.4,455.7c-20.9,24.7-41.7,49.3-62.6,74c-3,3.5-6,7.1-9,10.6c-2.1,2.4,1.5,6,3.5,3.5
				c20.9-24.7,41.7-49.3,62.6-74c3-3.5,6-7.1,9-10.6C848,456.7,844.5,453.2,842.4,455.7L842.4,455.7z"/>
		</g>
	</g>
</g>
<g id="Layer_6">
	<g id="XMLID_56_">
		
			<image style="overflow:visible;opacity:0.3;" width="279" height="277" id="XMLID_119_" xlink:href="B1660DC7.png"  transform="matrix(0.24 0 0 0.24 71.1893 73.2176)">
		</image>
		<g id="XMLID_101_">
			<linearGradient id="XMLID_127_" gradientUnits="userSpaceOnUse" x1="102.5039" y1="115.1275" x2="120.7158" y2="83.5835">
				<stop  offset="0" style="stop-color:#1F59A8"/>
				<stop  offset="5.677289e-002" style="stop-color:#405BA0"/>
				<stop  offset="0.2545" style="stop-color:#7E658A"/>
				<stop  offset="0.4428" style="stop-color:#A76E76"/>
				<stop  offset="0.6166" style="stop-color:#C87664"/>
				<stop  offset="0.7728" style="stop-color:#DF7B54"/>
				<stop  offset="0.9059" style="stop-color:#EE7F48"/>
				<stop  offset="1" style="stop-color:#F58143"/>
			</linearGradient>
			<ellipse id="XMLID_118_" class="st18" cx="111.6" cy="99.4" rx="18.4" ry="18.1"/>
		</g>
	</g>
	<g id="XMLID_73_">
		
			<image style="overflow:visible;opacity:0.3;" width="279" height="277" id="XMLID_115_" xlink:href="B1660DC9.png"  transform="matrix(0.24 0 0 0.24 565.4905 127.826)">
		</image>
		<g id="XMLID_105_">
			<linearGradient id="XMLID_128_" gradientUnits="userSpaceOnUse" x1="596.8051" y1="169.7359" x2="615.017" y2="138.192">
				<stop  offset="0" style="stop-color:#D46837"/>
				<stop  offset="4.684353e-002" style="stop-color:#CD6D3A"/>
				<stop  offset="0.2855" style="stop-color:#A58048"/>
				<stop  offset="0.5083" style="stop-color:#828B53"/>
				<stop  offset="0.7086" style="stop-color:#63925B"/>
				<stop  offset="0.8792" style="stop-color:#48965F"/>
				<stop  offset="1" style="stop-color:#3B9761"/>
			</linearGradient>
			<ellipse id="XMLID_114_" class="st19" cx="605.9" cy="154" rx="18.4" ry="18.1"/>
		</g>
	</g>
	<g id="XMLID_74_">
		
			<image style="overflow:visible;opacity:0.3;" width="279" height="277" id="XMLID_111_" xlink:href="B1660DCB.png"  transform="matrix(0.24 0 0 0.24 924.6466 7.9708)">
		</image>
		<g id="XMLID_102_">
			<linearGradient id="XMLID_129_" gradientUnits="userSpaceOnUse" x1="955.9612" y1="49.8807" x2="974.1732" y2="18.3368">
				<stop  offset="0" style="stop-color:#D069A9"/>
				<stop  offset="0.1863" style="stop-color:#DA7090"/>
				<stop  offset="0.3899" style="stop-color:#E37679"/>
				<stop  offset="0.5802" style="stop-color:#EA7B65"/>
				<stop  offset="0.7512" style="stop-color:#EF7E54"/>
				<stop  offset="0.8969" style="stop-color:#F38048"/>
				<stop  offset="1" style="stop-color:#F58143"/>
			</linearGradient>
			<ellipse id="XMLID_110_" class="st20" cx="965.1" cy="34.1" rx="18.4" ry="18.1"/>
		</g>
	</g>
	<g id="XMLID_75_">
		
			<image style="overflow:visible;opacity:0.3;" width="279" height="277" id="XMLID_117_" xlink:href="A3BFFC18.png"  transform="matrix(0.24 0 0 0.24 888.6498 696.4364)">
		</image>
		<g id="XMLID_104_">
			<linearGradient id="XMLID_132_" gradientUnits="userSpaceOnUse" x1="919.9644" y1="738.3463" x2="938.1763" y2="706.8023">
				<stop  offset="0" style="stop-color:#BFAB30"/>
				<stop  offset="8.893126e-002" style="stop-color:#B0A94A"/>
				<stop  offset="0.2799" style="stop-color:#92A47A"/>
				<stop  offset="0.4618" style="stop-color:#75A19B"/>
				<stop  offset="0.6297" style="stop-color:#599FB4"/>
				<stop  offset="0.7806" style="stop-color:#3C9DC5"/>
				<stop  offset="0.9091" style="stop-color:#1D9CD0"/>
				<stop  offset="1" style="stop-color:#009CD4"/>
			</linearGradient>
			<ellipse id="XMLID_116_" class="st21" cx="929.1" cy="722.6" rx="18.4" ry="18.1"/>
		</g>
	</g>
	<g id="XMLID_76_">
		
			<image style="overflow:visible;opacity:0.3;" width="279" height="277" id="XMLID_121_" xlink:href="A3BFFC1F.png"  transform="matrix(0.24 0 0 0.24 803.791 145.9639)">
		</image>
		<g id="XMLID_108_">
			<linearGradient id="XMLID_133_" gradientUnits="userSpaceOnUse" x1="835.1057" y1="187.8738" x2="853.3176" y2="156.3299">
				<stop  offset="0" style="stop-color:#E74425"/>
				<stop  offset="0.1007" style="stop-color:#D8493A"/>
				<stop  offset="0.2891" style="stop-color:#BD505D"/>
				<stop  offset="0.4687" style="stop-color:#A65576"/>
				<stop  offset="0.6345" style="stop-color:#93578A"/>
				<stop  offset="0.7834" style="stop-color:#845898"/>
				<stop  offset="0.9103" style="stop-color:#7B59A1"/>
				<stop  offset="1" style="stop-color:#775AA6"/>
			</linearGradient>
			<ellipse id="XMLID_120_" class="st22" cx="844.2" cy="172.1" rx="18.4" ry="18.1"/>
		</g>
	</g>
	<g id="XMLID_13_">
		
			<image style="overflow:visible;opacity:0.3;" width="279" height="277" id="XMLID_126_" xlink:href="A3BFFC19.png"  transform="matrix(0.24 0 0 0.24 410.1724 290.6345)">
		</image>
		<g id="XMLID_109_">
			<linearGradient id="XMLID_134_" gradientUnits="userSpaceOnUse" x1="441.487" y1="332.5444" x2="459.6989" y2="301.0005">
				<stop  offset="0" style="stop-color:#BFAB30"/>
				<stop  offset="8.893126e-002" style="stop-color:#B0A94A"/>
				<stop  offset="0.2799" style="stop-color:#92A47A"/>
				<stop  offset="0.4618" style="stop-color:#75A19B"/>
				<stop  offset="0.6297" style="stop-color:#599FB4"/>
				<stop  offset="0.7806" style="stop-color:#3C9DC5"/>
				<stop  offset="0.9091" style="stop-color:#1D9CD0"/>
				<stop  offset="1" style="stop-color:#009CD4"/>
			</linearGradient>
			<ellipse id="XMLID_125_" class="st23" cx="450.6" cy="316.8" rx="18.4" ry="18.1"/>
		</g>
	</g>
	<g id="XMLID_14_">
		
			<image style="overflow:visible;opacity:0.3;" width="279" height="277" id="XMLID_131_" xlink:href="A3BFFC1B.png"  transform="matrix(0.24 0 0 0.24 267.6795 127.826)">
		</image>
		<g id="XMLID_122_">
			<linearGradient id="XMLID_135_" gradientUnits="userSpaceOnUse" x1="298.9941" y1="169.7359" x2="317.206" y2="138.192">
				<stop  offset="0" style="stop-color:#D069A9"/>
				<stop  offset="0.1863" style="stop-color:#DA7090"/>
				<stop  offset="0.3899" style="stop-color:#E37679"/>
				<stop  offset="0.5802" style="stop-color:#EA7B65"/>
				<stop  offset="0.7512" style="stop-color:#EF7E54"/>
				<stop  offset="0.8969" style="stop-color:#F38048"/>
				<stop  offset="1" style="stop-color:#F58143"/>
			</linearGradient>
			<ellipse id="XMLID_130_" class="st24" cx="308.1" cy="154" rx="18.4" ry="18.1"/>
		</g>
	</g>
</g>
<g id="Layer_7">
	<text id="XMLID_17_" transform="matrix(0.8992 0 0 1 16.0016 412.0066)"><tspan x="0" y="0" class="st3 st25 st26">A step towards</tspan><tspan x="0" y="73.1" class="st3 st25 st26">the </tspan></text>
</g>
<g id="Layer_8">
	<g id="XMLID_87_">
		<text id="XMLID_188_" transform="matrix(1 0 0 1 111.6099 484.086)" class="st25 st27">future...</text>
		<g id="XMLID_168_">
			<linearGradient id="XMLID_136_" gradientUnits="userSpaceOnUse" x1="111.0747" y1="462.2964" x2="341.9312" y2="462.2964">
				<stop  offset="0" style="stop-color:#D069A9"/>
				<stop  offset="0.1863" style="stop-color:#DA7090"/>
				<stop  offset="0.3899" style="stop-color:#E37679"/>
				<stop  offset="0.5802" style="stop-color:#EA7B65"/>
				<stop  offset="0.7512" style="stop-color:#EF7E54"/>
				<stop  offset="0.8969" style="stop-color:#F38048"/>
				<stop  offset="1" style="stop-color:#F58143"/>
			</linearGradient>
			<path id="XMLID_186_" class="st28" d="M115.1,452.5h1.9v-2.4c0-2.5,0.3-4.6,1-6c0.6-1.5,1.7-2.6,3.3-3.3s3.6-1,6.3-1
				c4.7,0,7.1,1.2,7.1,3.5c0,0.8-0.2,1.4-0.7,1.9c-0.5,0.5-1.1,0.8-1.8,0.8c-0.3,0-0.9-0.1-1.6-0.2c-0.8-0.1-1.4-0.2-2-0.2
				c-1.5,0-2.4,0.4-2.8,1.3c-0.4,0.9-0.6,2.1-0.6,3.7v1.9h2c3.1,0,4.6,0.9,4.6,2.8c0,1.3-0.4,2.2-1.2,2.5c-0.8,0.4-2,0.5-3.4,0.5h-2
				v21.5c0,1.6-0.4,2.8-1.1,3.7c-0.8,0.8-1.7,1.3-3,1.3c-1.1,0-2.1-0.4-2.9-1.3c-0.8-0.8-1.1-2.1-1.1-3.7v-21.5h-2.2
				c-1.2,0-2.1-0.3-2.8-0.8c-0.7-0.5-1-1.3-1-2.1C111.1,453.5,112.4,452.5,115.1,452.5z"/>
			<linearGradient id="XMLID_137_" gradientUnits="userSpaceOnUse" x1="111.0747" y1="462.2964" x2="341.9312" y2="462.2964">
				<stop  offset="0" style="stop-color:#D069A9"/>
				<stop  offset="0.1863" style="stop-color:#DA7090"/>
				<stop  offset="0.3899" style="stop-color:#E37679"/>
				<stop  offset="0.5802" style="stop-color:#EA7B65"/>
				<stop  offset="0.7512" style="stop-color:#EF7E54"/>
				<stop  offset="0.8969" style="stop-color:#F38048"/>
				<stop  offset="1" style="stop-color:#F58143"/>
			</linearGradient>
			<path id="XMLID_184_" class="st29" d="M157.2,480.3v-1c-1,1.2-2,2.3-3.1,3.1c-1.1,0.8-2.2,1.5-3.5,1.9c-1.3,0.4-2.7,0.6-4.3,0.6
				c-2,0-3.7-0.4-5.3-1.2c-1.6-0.8-2.8-1.9-3.6-3.4c-1-1.7-1.5-4.2-1.5-7.4v-16.1c0-1.6,0.4-2.8,1.1-3.6c0.7-0.8,1.7-1.2,2.9-1.2
				c1.2,0,2.2,0.4,3,1.2c0.8,0.8,1.1,2,1.1,3.6v13c0,1.9,0.2,3.5,0.5,4.7s0.9,2.3,1.7,3c0.8,0.7,1.9,1.1,3.3,1.1
				c1.4,0,2.7-0.4,3.9-1.2c1.2-0.8,2.1-1.9,2.6-3.2c0.5-1.1,0.7-3.7,0.7-7.6v-9.9c0-1.6,0.4-2.8,1.1-3.6c0.8-0.8,1.7-1.2,2.9-1.2
				s2.2,0.4,2.9,1.2c0.7,0.8,1.1,2,1.1,3.6v23.5c0,1.5-0.4,2.7-1.1,3.5c-0.7,0.8-1.6,1.2-2.7,1.2c-1.1,0-2-0.4-2.8-1.2
				C157.5,482.8,157.2,481.7,157.2,480.3z"/>
			<linearGradient id="XMLID_138_" gradientUnits="userSpaceOnUse" x1="111.0747" y1="462.2964" x2="341.9312" y2="462.2964">
				<stop  offset="0" style="stop-color:#D069A9"/>
				<stop  offset="0.1863" style="stop-color:#DA7090"/>
				<stop  offset="0.3899" style="stop-color:#E37679"/>
				<stop  offset="0.5802" style="stop-color:#EA7B65"/>
				<stop  offset="0.7512" style="stop-color:#EF7E54"/>
				<stop  offset="0.8969" style="stop-color:#F38048"/>
				<stop  offset="1" style="stop-color:#F58143"/>
			</linearGradient>
			<path id="XMLID_182_" class="st30" d="M173.3,452.5h0.9v-4.9c0-1.3,0-2.3,0.1-3.1c0.1-0.7,0.3-1.4,0.6-1.9c0.3-0.6,0.8-1,1.4-1.4
				c0.6-0.3,1.3-0.5,2-0.5c1,0,2,0.4,2.8,1.2c0.6,0.5,0.9,1.1,1.1,1.9c0.1,0.7,0.2,1.8,0.2,3.2v5.5h3c1.1,0,2,0.3,2.6,0.8
				c0.6,0.5,0.9,1.2,0.9,2.1c0,1.1-0.4,1.9-1.3,2.3c-0.9,0.4-2.1,0.7-3.7,0.7h-1.5v14.9c0,1.3,0,2.2,0.1,2.9s0.3,1.2,0.7,1.7
				s1,0.6,1.9,0.6c0.5,0,1.1-0.1,1.9-0.3c0.8-0.2,1.4-0.3,1.9-0.3c0.7,0,1.2,0.3,1.8,0.8c0.5,0.5,0.8,1.2,0.8,1.9
				c0,1.3-0.7,2.3-2.1,3c-1.4,0.7-3.5,1-6.2,1c-2.5,0-4.5-0.4-5.8-1.3s-2.2-2-2.6-3.5c-0.4-1.5-0.6-3.5-0.6-6v-15.6h-1.1
				c-1.2,0-2.1-0.3-2.7-0.8c-0.6-0.6-0.9-1.3-0.9-2.1c0-0.9,0.3-1.5,1-2.1C171.1,452.8,172.1,452.5,173.3,452.5z"/>
			<linearGradient id="XMLID_139_" gradientUnits="userSpaceOnUse" x1="111.0747" y1="462.2964" x2="341.9312" y2="462.2964">
				<stop  offset="0" style="stop-color:#D069A9"/>
				<stop  offset="0.1863" style="stop-color:#DA7090"/>
				<stop  offset="0.3899" style="stop-color:#E37679"/>
				<stop  offset="0.5802" style="stop-color:#EA7B65"/>
				<stop  offset="0.7512" style="stop-color:#EF7E54"/>
				<stop  offset="0.8969" style="stop-color:#F38048"/>
				<stop  offset="1" style="stop-color:#F58143"/>
			</linearGradient>
			<path id="XMLID_180_" class="st31" d="M215.5,480.3v-1c-1,1.2-2,2.3-3.1,3.1c-1.1,0.8-2.2,1.5-3.5,1.9c-1.3,0.4-2.7,0.6-4.3,0.6
				c-2,0-3.7-0.4-5.3-1.2c-1.6-0.8-2.8-1.9-3.6-3.4c-1-1.7-1.5-4.2-1.5-7.4v-16.1c0-1.6,0.4-2.8,1.1-3.6c0.7-0.8,1.7-1.2,2.9-1.2
				c1.2,0,2.2,0.4,3,1.2c0.8,0.8,1.1,2,1.1,3.6v13c0,1.9,0.2,3.5,0.5,4.7s0.9,2.3,1.7,3c0.8,0.7,1.9,1.1,3.3,1.1
				c1.4,0,2.7-0.4,3.9-1.2c1.2-0.8,2.1-1.9,2.6-3.2c0.5-1.1,0.7-3.7,0.7-7.6v-9.9c0-1.6,0.4-2.8,1.1-3.6c0.8-0.8,1.7-1.2,2.9-1.2
				s2.2,0.4,2.9,1.2c0.7,0.8,1.1,2,1.1,3.6v23.5c0,1.5-0.4,2.7-1.1,3.5c-0.7,0.8-1.6,1.2-2.7,1.2c-1.1,0-2-0.4-2.8-1.2
				C215.8,482.8,215.5,481.7,215.5,480.3z"/>
			<linearGradient id="XMLID_140_" gradientUnits="userSpaceOnUse" x1="111.0747" y1="462.2964" x2="341.9312" y2="462.2964">
				<stop  offset="0" style="stop-color:#D069A9"/>
				<stop  offset="0.1863" style="stop-color:#DA7090"/>
				<stop  offset="0.3899" style="stop-color:#E37679"/>
				<stop  offset="0.5802" style="stop-color:#EA7B65"/>
				<stop  offset="0.7512" style="stop-color:#EF7E54"/>
				<stop  offset="0.8969" style="stop-color:#F38048"/>
				<stop  offset="1" style="stop-color:#F58143"/>
			</linearGradient>
			<path id="XMLID_178_" class="st32" d="M239.2,473.1v6.8c0,1.6-0.4,2.9-1.2,3.7s-1.8,1.2-2.9,1.2c-1.2,0-2.1-0.4-2.9-1.2
				c-0.8-0.8-1.1-2.1-1.1-3.7v-22.6c0-3.6,1.3-5.5,4-5.5c1.3,0,2.3,0.4,2.9,1.3c0.6,0.9,0.9,2.1,1,3.8c1-1.7,2-2.9,3-3.8
				c1-0.9,2.4-1.3,4.1-1.3c1.7,0,3.4,0.4,5,1.3c1.6,0.9,2.4,2,2.4,3.4c0,1-0.3,1.8-1,2.5c-0.7,0.6-1.4,1-2.2,1c-0.3,0-1-0.2-2.2-0.5
				c-1.1-0.4-2.1-0.5-3-0.5c-1.2,0-2.2,0.3-2.9,0.9c-0.8,0.6-1.3,1.6-1.8,2.8c-0.4,1.2-0.7,2.7-0.9,4.4
				C239.3,468.6,239.2,470.7,239.2,473.1z"/>
			<linearGradient id="XMLID_141_" gradientUnits="userSpaceOnUse" x1="111.0747" y1="462.2964" x2="341.9312" y2="462.2964">
				<stop  offset="0" style="stop-color:#D069A9"/>
				<stop  offset="0.1863" style="stop-color:#DA7090"/>
				<stop  offset="0.3899" style="stop-color:#E37679"/>
				<stop  offset="0.5802" style="stop-color:#EA7B65"/>
				<stop  offset="0.7512" style="stop-color:#EF7E54"/>
				<stop  offset="0.8969" style="stop-color:#F38048"/>
				<stop  offset="1" style="stop-color:#F58143"/>
			</linearGradient>
			<path id="XMLID_175_" class="st33" d="M280.5,470.3h-15.9c0,1.8,0.4,3.5,1.1,4.9c0.7,1.4,1.7,2.5,2.9,3.2c1.2,0.7,2.5,1.1,4,1.1
				c1,0,1.9-0.1,2.7-0.3c0.8-0.2,1.6-0.6,2.3-1.1c0.8-0.5,1.4-1,2.1-1.6c0.6-0.6,1.5-1.3,2.5-2.3c0.4-0.4,1-0.5,1.8-0.5
				c0.8,0,1.5,0.2,2,0.7c0.5,0.5,0.8,1.1,0.8,1.9c0,0.7-0.3,1.6-0.9,2.6c-0.6,1-1.4,1.9-2.6,2.8c-1.2,0.9-2.6,1.6-4.4,2.2
				s-3.8,0.9-6,0.9c-5.2,0-9.3-1.5-12.2-4.5c-2.9-3-4.3-7-4.3-12.1c0-2.4,0.4-4.6,1.1-6.7s1.8-3.8,3.1-5.3c1.4-1.5,3.1-2.6,5.1-3.4
				c2-0.8,4.2-1.2,6.7-1.2c3.2,0,5.9,0.7,8.2,2c2.3,1.3,4,3.1,5.1,5.2c1.1,2.1,1.7,4.3,1.7,6.5c0,2-0.6,3.4-1.8,4
				C284.3,470,282.6,470.3,280.5,470.3z M264.6,465.7h14.7c-0.2-2.8-0.9-4.8-2.2-6.2c-1.3-1.4-3-2.1-5.1-2.1c-2,0-3.7,0.7-5,2.1
				C265.7,460.9,264.9,463,264.6,465.7z"/>
			<linearGradient id="XMLID_142_" gradientUnits="userSpaceOnUse" x1="111.0747" y1="462.2964" x2="341.9312" y2="462.2964">
				<stop  offset="0" style="stop-color:#D069A9"/>
				<stop  offset="0.1863" style="stop-color:#DA7090"/>
				<stop  offset="0.3899" style="stop-color:#E37679"/>
				<stop  offset="0.5802" style="stop-color:#EA7B65"/>
				<stop  offset="0.7512" style="stop-color:#EF7E54"/>
				<stop  offset="0.8969" style="stop-color:#F38048"/>
				<stop  offset="1" style="stop-color:#F58143"/>
			</linearGradient>
			<path id="XMLID_173_" class="st34" d="M299.4,484.8c-1.2,0-2.3-0.4-3.2-1.2c-0.9-0.8-1.3-1.9-1.3-3.3c0-1.2,0.4-2.2,1.3-3.1
				s1.9-1.3,3.2-1.3s2.3,0.4,3.2,1.3c0.9,0.9,1.3,1.9,1.3,3.1c0,1.4-0.4,2.5-1.3,3.3S300.6,484.8,299.4,484.8z"/>
			<linearGradient id="XMLID_143_" gradientUnits="userSpaceOnUse" x1="111.0747" y1="462.2964" x2="341.9312" y2="462.2964">
				<stop  offset="0" style="stop-color:#D069A9"/>
				<stop  offset="0.1863" style="stop-color:#DA7090"/>
				<stop  offset="0.3899" style="stop-color:#E37679"/>
				<stop  offset="0.5802" style="stop-color:#EA7B65"/>
				<stop  offset="0.7512" style="stop-color:#EF7E54"/>
				<stop  offset="0.8969" style="stop-color:#F38048"/>
				<stop  offset="1" style="stop-color:#F58143"/>
			</linearGradient>
			<path id="XMLID_171_" class="st35" d="M318.4,484.8c-1.2,0-2.3-0.4-3.2-1.2c-0.9-0.8-1.3-1.9-1.3-3.3c0-1.2,0.4-2.2,1.3-3.1
				s1.9-1.3,3.2-1.3s2.3,0.4,3.2,1.3c0.9,0.9,1.3,1.9,1.3,3.1c0,1.4-0.4,2.5-1.3,3.3S319.6,484.8,318.4,484.8z"/>
			<linearGradient id="XMLID_144_" gradientUnits="userSpaceOnUse" x1="111.0747" y1="462.2964" x2="341.9312" y2="462.2964">
				<stop  offset="0" style="stop-color:#D069A9"/>
				<stop  offset="0.1863" style="stop-color:#DA7090"/>
				<stop  offset="0.3899" style="stop-color:#E37679"/>
				<stop  offset="0.5802" style="stop-color:#EA7B65"/>
				<stop  offset="0.7512" style="stop-color:#EF7E54"/>
				<stop  offset="0.8969" style="stop-color:#F38048"/>
				<stop  offset="1" style="stop-color:#F58143"/>
			</linearGradient>
			<path id="XMLID_169_" class="st36" d="M337.5,484.8c-1.2,0-2.3-0.4-3.2-1.2c-0.9-0.8-1.3-1.9-1.3-3.3c0-1.2,0.4-2.2,1.3-3.1
				s1.9-1.3,3.2-1.3s2.3,0.4,3.2,1.3c0.9,0.9,1.3,1.9,1.3,3.1c0,1.4-0.4,2.5-1.3,3.3S338.7,484.8,337.5,484.8z"/>
		</g>
	</g>
</g>
</svg>
